<svg width="36" height="36" viewBox="0 0 36 36" fill="none" xmlns="http://www.w3.org/2000/svg">
<circle cx="18" cy="18" r="18" fill="white" fill-opacity="0.2"/>
<path fill-rule="evenodd" clip-rule="evenodd" d="M10.6666 23.3333C10.6666 23.1565 10.7369 22.987 10.8619 22.8619C10.9869 22.7369 11.1565 22.6667 11.3333 22.6667H24.6666C24.8434 22.6667 25.013 22.7369 25.138 22.8619C25.2631 22.987 25.3333 23.1565 25.3333 23.3333C25.3333 23.5101 25.2631 23.6797 25.138 23.8047C25.013 23.9298 24.8434 24 24.6666 24H11.3333C11.1565 24 10.9869 23.9298 10.8619 23.8047C10.7369 23.6797 10.6666 23.5101 10.6666 23.3333ZM10.6666 18C10.6666 17.8232 10.7369 17.6536 10.8619 17.5286C10.9869 17.4036 11.1565 17.3333 11.3333 17.3333H24.6666C24.8434 17.3333 25.013 17.4036 25.138 17.5286C25.2631 17.6536 25.3333 17.8232 25.3333 18C25.3333 18.1768 25.2631 18.3464 25.138 18.4714C25.013 18.5964 24.8434 18.6667 24.6666 18.6667H11.3333C11.1565 18.6667 10.9869 18.5964 10.8619 18.4714C10.7369 18.3464 10.6666 18.1768 10.6666 18ZM10.6666 12.6667C10.6666 12.4899 10.7369 12.3203 10.8619 12.1953C10.9869 12.0702 11.1565 12 11.3333 12H24.6666C24.8434 12 25.013 12.0702 25.138 12.1953C25.2631 12.3203 25.3333 12.4899 25.3333 12.6667C25.3333 12.8435 25.2631 13.013 25.138 13.1381C25.013 13.2631 24.8434 13.3333 24.6666 13.3333H11.3333C11.1565 13.3333 10.9869 13.2631 10.8619 13.1381C10.7369 13.013 10.6666 12.8435 10.6666 12.6667Z" fill="white"/>
</svg>
