<svg width="93" height="92" viewBox="0 0 93 92" fill="none" xmlns="http://www.w3.org/2000/svg">
<g opacity="0.3">
<path d="M84.6083 66.1495C83.1094 65.5084 82.4084 63.7665 83.0494 62.2661C83.6967 60.7594 85.4324 60.0661 86.9405 60.7133C88.4395 61.3544 89.1405 63.0962 88.4994 64.5952C88.4441 64.712 88.3934 64.8181 88.3334 64.9211C87.5939 66.1925 85.9951 66.7475 84.6083 66.1495Z" fill="#3C3C3C"/>
<path d="M75.1506 82.3303C73.8792 83.3619 72.0159 83.1697 70.9844 81.8998C69.9482 80.6376 70.1403 78.7743 71.4025 77.7382C72.6739 76.7066 74.5372 76.8987 75.5734 78.1609C76.3698 79.1479 76.4374 80.4885 75.8378 81.5201C75.6657 81.8183 75.4351 82.0951 75.1506 82.3303Z" fill="#3C3C3C"/>
<path d="M89.3697 45.8852C87.7432 46.0144 86.3149 44.7983 86.1781 43.1656C86.049 41.5391 87.265 40.1108 88.8916 39.9817C90.5227 39.8449 91.9509 41.0609 92.0878 42.6921C92.1324 43.3224 91.9848 43.9112 91.6927 44.4139C91.2238 45.2272 90.3751 45.8068 89.3697 45.8852Z" fill="#3C3C3C"/>
<path d="M55.0908 91.8114C53.4827 92.145 51.9207 91.1012 51.5902 89.5069C51.2643 87.9034 52.3005 86.3353 53.904 86.0109C55.5074 85.6865 57.074 86.7212 57.3999 88.3247C57.5537 89.0641 57.4153 89.7928 57.0633 90.4001C56.6512 91.1073 55.9548 91.6392 55.0908 91.8114Z" fill="#3C3C3C"/>
<path d="M84.1717 25.7196C82.7773 26.5883 80.9555 26.1701 80.0823 24.7849C79.2167 23.4044 79.6272 21.5764 81.0124 20.7032C82.3975 19.83 84.2285 20.2527 85.0941 21.6333C85.706 22.6049 85.686 23.7795 85.151 24.7019C84.9173 25.1032 84.5868 25.4583 84.1717 25.7196Z" fill="#3C3C3C"/>
<path d="M32.911 90.9228C31.3444 90.4585 30.4373 88.8135 30.9016 87.2469C31.3521 85.6834 32.9971 84.7764 34.5683 85.233C36.1318 85.685 37.0342 87.3361 36.5822 88.9011C36.5146 89.1348 36.4162 89.3639 36.2978 89.5684C35.6352 90.7122 34.2408 91.3056 32.911 90.9228Z" fill="#3C3C3C"/>
<path d="M66.1477 11.3592C66.1216 11.3438 66.097 11.33 66.0801 11.3192C66.0539 11.3038 66.0293 11.29 66.0124 11.2792C64.5904 10.4659 64.1015 8.65338 64.924 7.23592C65.7372 5.81385 67.5452 5.33419 68.9596 6.14285C68.9934 6.16284 69.0195 6.17821 69.0441 6.19205C69.0703 6.20742 69.0949 6.22126 69.121 6.23663C70.5385 7.05913 71.0181 8.86708 70.1956 10.283C69.3716 11.702 67.5636 12.1817 66.1477 11.3592Z" fill="#3C3C3C"/>
<path d="M17.8864 79.7291C16.7565 80.9098 14.8824 80.9528 13.7017 79.8228C12.521 78.6929 12.4826 76.8111 13.6141 75.6289C14.744 74.4482 16.6212 74.419 17.8019 75.5489C18.8073 76.5098 18.9841 78.0149 18.3154 79.1664C18.1954 79.3724 18.0555 79.5538 17.8864 79.7291Z" fill="#3C3C3C"/>
<path d="M47.407 5.91827C45.7789 5.85217 44.5121 4.47775 44.569 2.84506C44.6259 1.21237 46.0064 -0.0636501 47.633 0.00245702C49.2733 0.0654894 50.5417 1.4399 50.4848 3.07259C50.4664 3.57531 50.3218 4.0396 50.0897 4.44086C49.5562 5.36174 48.5462 5.96286 47.407 5.91827Z" fill="#3C3C3C"/>
<path d="M5.5889 62.9288C4.03615 63.4423 2.36348 62.6091 1.85 61.0548C1.32268 59.5051 2.16978 57.8294 3.71484 57.3097C5.26759 56.7962 6.94025 57.6295 7.46757 59.1792C7.74276 60.0232 7.62592 60.8918 7.21083 61.6098C6.86338 62.2078 6.29763 62.6905 5.5889 62.9288Z" fill="#3C3C3C"/>
<path d="M28.4421 9.8156C26.9693 10.5243 25.1998 9.89708 24.4956 8.41505C23.7992 6.93917 24.428 5.16965 25.9039 4.47476C27.3844 3.77064 29.1462 4.39328 29.8503 5.87377C30.2885 6.79005 30.207 7.81548 29.7319 8.6349C29.4444 9.12993 29.0063 9.54963 28.4421 9.8156Z" fill="#3C3C3C"/>
<path d="M2.48648 42.3371C0.870698 42.0726 -0.223912 40.5583 0.0389786 38.9425C0.303407 37.3268 1.81772 36.2322 3.43811 36.4874C5.05389 36.7518 6.14389 38.2738 5.88561 39.8819C5.82719 40.2585 5.69959 40.5952 5.52126 40.9027C4.92629 41.9266 3.73944 42.5385 2.48648 42.3371Z" fill="#3C3C3C"/>
<path d="M13.4663 22.0763C12.4916 23.3815 10.636 23.6505 9.32153 22.6712C8.0163 21.6965 7.75187 19.8317 8.72503 18.5265C9.70434 17.212 11.5553 16.9522 12.8698 17.9315C14.0859 18.8432 14.4041 20.4989 13.66 21.7796C13.6016 21.881 13.5339 21.9779 13.4663 22.0763Z" fill="#3C3C3C"/>
<path d="M77.5565 62.549C76.3282 62.0309 75.7547 60.6011 76.2867 59.3697C76.814 58.1459 78.2422 57.5709 79.466 58.0983C80.6974 58.6302 81.2631 60.0538 80.7358 61.2775C80.7035 61.3729 80.6543 61.459 80.6036 61.5435C80.001 62.5859 78.6988 63.0394 77.5565 62.549Z" fill="#3C3C3C"/>
<path d="M69.8172 75.789C68.7779 76.636 67.2483 76.4777 66.4165 75.4354C65.5648 74.4053 65.7216 72.8756 66.7609 72.0301C67.8002 71.183 69.3299 71.3413 70.1662 72.3744C70.8226 73.1893 70.8749 74.2808 70.3845 75.1248C70.2415 75.3739 70.0555 75.5968 69.8172 75.789Z" fill="#3C3C3C"/>
<path d="M81.4583 45.9731C80.1208 46.0761 78.9524 45.0783 78.8447 43.75C78.7417 42.4125 79.7349 41.2533 81.0678 41.138C82.3961 41.0304 83.5722 42.0328 83.6798 43.3611C83.7151 43.8715 83.5906 44.3588 83.3539 44.7693C82.968 45.435 82.2762 45.9008 81.4583 45.9731Z" fill="#3C3C3C"/>
<path d="M53.4011 83.5511C52.0928 83.8186 50.8152 82.9746 50.5508 81.6571C50.2833 80.3488 51.1273 79.0712 52.4356 78.8022C53.7439 78.5346 55.0215 79.3787 55.2982 80.6916C55.4151 81.2958 55.3075 81.8953 55.02 82.3904C54.6848 82.9715 54.1145 83.4051 53.4011 83.5511Z" fill="#3C3C3C"/>
<path d="M77.2044 29.4708C76.0636 30.178 74.5678 29.8459 73.8606 28.7052C73.1488 27.5737 73.4885 26.0824 74.6216 25.3691C75.7531 24.6573 77.2536 25.0016 77.9577 26.1285C78.4573 26.9203 78.445 27.8842 78.01 28.6344C77.8147 28.968 77.5441 29.2571 77.2044 29.4708Z" fill="#3C3C3C"/>
<path d="M35.2633 82.8161C33.9734 82.4441 33.2386 81.0943 33.6137 79.8167C33.9857 78.5269 35.3279 77.7874 36.6177 78.1594C37.8937 78.5346 38.6424 79.8813 38.2612 81.1681C38.2043 81.3633 38.1274 81.5355 38.029 81.7062C37.4848 82.6455 36.3579 83.1328 35.2633 82.8161Z" fill="#3C3C3C"/>
<path d="M62.4516 17.7268L62.4562 17.7191C62.447 17.7145 62.4393 17.7083 62.4224 17.6991C62.3963 17.6837 62.3655 17.6776 62.3409 17.6622C61.1802 16.9889 60.7805 15.513 61.4462 14.3476C62.1196 13.1869 63.5954 12.7872 64.7561 13.4606C64.7823 13.4759 64.7992 13.4852 64.8238 13.5005C64.8407 13.5098 64.8668 13.5251 64.8838 13.5359C66.0445 14.2093 66.4442 15.6852 65.7708 16.8459C65.0959 18.0066 63.6123 18.4017 62.4516 17.7268Z" fill="#3C3C3C"/>
<path d="M22.9689 73.6626C22.0419 74.6311 20.506 74.6634 19.5421 73.7287C19.5421 73.7287 19.5421 73.7287 19.5375 73.7364C18.5828 72.8062 18.5459 71.2781 19.4714 70.3095C20.3984 69.341 21.9296 69.3164 22.9028 70.2358C23.7191 71.029 23.8652 72.2543 23.3148 73.2013C23.221 73.3658 23.1042 73.5257 22.9689 73.6626Z" fill="#3C3C3C"/>
<path d="M47.1227 13.2716C45.7867 13.2147 44.7459 12.0986 44.7936 10.7565C44.8489 9.4205 45.9666 8.3797 47.3087 8.42735C48.6493 8.47501 49.6947 9.60652 49.6378 10.9425C49.6225 11.3438 49.5087 11.7342 49.3165 12.0679C48.8845 12.8119 48.0543 13.2993 47.1227 13.2716Z" fill="#3C3C3C"/>
<path d="M12.9037 59.917C11.6384 60.3474 10.2625 59.651 9.84584 58.3827C9.41538 57.1174 10.098 55.7445 11.3709 55.3202C12.6454 54.8959 14.0121 55.5862 14.4426 56.8514C14.6686 57.5417 14.5717 58.2612 14.235 58.8423C13.9537 59.3282 13.4879 59.7186 12.9037 59.917Z" fill="#3C3C3C"/>
<path d="M31.6105 16.4692C30.3991 17.0442 28.9539 16.5245 28.379 15.3131C27.804 14.1016 28.3175 12.6657 29.5305 12.0908C30.7342 11.5112 32.1793 12.0293 32.7589 13.233C33.1095 13.9848 33.0526 14.8304 32.6667 15.496C32.4269 15.905 32.0702 16.2447 31.6105 16.4692Z" fill="#3C3C3C"/>
<path d="M10.37 43.0659C9.0525 42.8599 8.15621 41.61 8.36222 40.2924C8.58207 38.9703 9.82273 38.0709 11.1449 38.2893C12.4639 38.4953 13.3587 39.7451 13.1527 41.0627C13.1035 41.3655 12.9974 41.6453 12.8529 41.8929C12.3625 42.7384 11.3893 43.235 10.37 43.0659Z" fill="#3C3C3C"/>
<path d="M19.3515 26.4836C18.5551 27.5612 17.0377 27.7765 15.96 26.9801C14.887 26.1745 14.6717 24.6587 15.4773 23.5841C16.2767 22.5187 17.7987 22.2957 18.8641 23.0952C19.8573 23.8423 20.1171 25.2029 19.5083 26.2529C19.4637 26.3314 19.4145 26.4159 19.3515 26.4836Z" fill="#3C3C3C"/>
<path d="M71.5346 59.4757C70.5399 59.0468 70.0756 57.8984 70.5045 56.9037C70.9334 55.909 72.0849 55.4371 73.0888 55.8706C74.0758 56.2949 74.5417 57.4556 74.1143 58.4503C74.0835 58.5241 74.0436 58.5918 74.0036 58.6594C73.5147 59.5065 72.457 59.8739 71.5346 59.4757Z" fill="#3C3C3C"/>
<path d="M65.2653 70.2036C64.4213 70.8892 63.1883 70.7555 62.5104 69.9176C61.8247 69.0751 61.9446 67.8437 62.7886 67.158C63.6326 66.4724 64.8656 66.6061 65.5482 67.4363C66.0832 68.0881 66.1247 68.9798 65.7281 69.6624C65.6082 69.8669 65.456 70.0514 65.2653 70.2036Z" fill="#3C3C3C"/>
<path d="M74.697 46.0438C73.6085 46.1314 72.6723 45.3258 72.58 44.2451C72.497 43.1704 73.298 42.2203 74.3787 42.1281C75.4626 42.0497 76.4127 42.8522 76.4957 43.9268C76.5264 44.345 76.4281 44.7324 76.2297 45.0737C75.9176 45.6118 75.3627 45.9977 74.697 46.0438Z" fill="#3C3C3C"/>
<path d="M51.9654 76.4885C50.9031 76.7053 49.8715 76.0258 49.6547 74.965C49.4379 73.9026 50.1221 72.8618 51.1829 72.6451C52.2436 72.4283 53.286 73.1124 53.5028 74.1732C53.5965 74.6621 53.5089 75.1464 53.2752 75.5476C53.0031 76.0181 52.5434 76.3778 51.9654 76.4885Z" fill="#3C3C3C"/>
<path d="M71.2471 32.6779C70.3308 33.2528 69.1194 32.9823 68.5398 32.0537C67.9648 31.1374 68.243 29.9306 69.1593 29.3541C70.0756 28.7791 71.287 29.0481 71.862 29.9644C72.2648 30.6086 72.2556 31.3911 71.8989 32.006C71.7452 32.2705 71.5238 32.4964 71.2471 32.6779Z" fill="#3C3C3C"/>
<path d="M37.2726 75.8934C36.2257 75.5936 35.6261 74.5036 35.9336 73.4612C36.2365 72.4281 37.3265 71.8286 38.3657 72.1222C39.4081 72.4297 40.0076 73.5197 39.7002 74.562C39.6556 74.7188 39.5925 74.8649 39.5188 74.9925C39.0714 75.7612 38.1582 76.1563 37.2726 75.8934Z" fill="#3C3C3C"/>
<path d="M59.3016 23.1567C59.2847 23.1475 59.2678 23.1367 59.2509 23.1275C59.2417 23.1229 59.2248 23.1121 59.2079 23.1029C58.2639 22.5664 57.9457 21.3657 58.4899 20.4279C59.0264 19.4839 60.2271 19.1641 61.1711 19.7007C61.188 19.7115 61.2003 19.7284 61.2172 19.7391C61.2341 19.7483 61.2556 19.7499 61.2725 19.7606C62.2119 20.3049 62.5255 21.5148 61.9859 22.4449C61.4417 23.3827 60.241 23.7009 59.3016 23.1567Z" fill="#3C3C3C"/>
<path d="M27.3105 68.4802C26.5587 69.2658 25.315 69.2843 24.5386 68.5371C23.7546 67.7853 23.7284 66.5493 24.4725 65.7606C25.2335 64.9812 26.468 64.9566 27.2536 65.7083C27.9209 66.3479 28.0408 67.341 27.5949 68.1082C27.5196 68.2373 27.4228 68.3649 27.3105 68.4802Z" fill="#3C3C3C"/>
<path d="M46.8828 19.5456C45.7974 19.5087 44.9565 18.5986 45.0011 17.5178C45.038 16.4324 45.9481 15.5914 47.0335 15.6268C48.1143 15.6714 48.9598 16.5738 48.9229 17.6592C48.9106 17.9944 48.8122 18.3018 48.6539 18.5755C48.3034 19.1828 47.6377 19.584 46.8828 19.5456Z" fill="#3C3C3C"/>
<path d="M19.1594 57.339C18.1247 57.6865 17.0178 57.1361 16.6796 56.1061C16.3321 55.0714 16.8841 53.9645 17.9172 53.6186C18.9457 53.2804 20.0526 53.8307 20.4 54.8654C20.583 55.4158 20.5061 56 20.234 56.4689C20.0019 56.8686 19.6329 57.1914 19.1594 57.339Z" fill="#3C3C3C"/>
<path d="M34.3087 22.1422C33.334 22.6034 32.161 22.1852 31.6921 21.2059C31.2309 20.2312 31.6491 19.0582 32.6238 18.597C33.6046 18.1266 34.7761 18.5447 35.2373 19.521C35.5309 20.1359 35.4787 20.8139 35.1681 21.352C34.9744 21.684 34.6792 21.9577 34.3087 22.1422Z" fill="#3C3C3C"/>
<path d="M17.1008 43.6961C16.0277 43.5193 15.3036 42.5061 15.4758 41.4407C15.6541 40.3677 16.658 39.6389 17.7311 39.8157C18.7949 39.9879 19.5237 40.9934 19.3561 42.0695C19.3192 42.3109 19.2346 42.5354 19.1147 42.7398C18.7196 43.4255 17.9294 43.8237 17.1008 43.6961Z" fill="#3C3C3C"/>
<path d="M24.3849 30.2595C23.7346 31.125 22.5031 31.3018 21.6314 30.6592C20.7659 30.0089 20.5891 28.7775 21.241 27.9104C21.8836 27.0387 23.115 26.8634 23.9898 27.5199C24.7969 28.1133 25.0029 29.2156 24.5079 30.0689C24.4679 30.1365 24.4325 30.1965 24.3849 30.2595Z" fill="#3C3C3C"/>
</g>
</svg>
