<svg width="56" height="55" viewBox="0 0 56 55" fill="none" xmlns="http://www.w3.org/2000/svg">
<g clip-path="url(#clip0_102_85581)">
<path d="M18.907 6.87515C15.716 6.87515 12.6557 8.14273 10.3993 10.399C8.14289 12.6553 6.87526 15.7155 6.87526 18.9064V36.0939C6.87526 39.2848 8.14289 42.345 10.3993 44.6013C12.6557 46.8576 15.716 48.1252 18.907 48.1252H36.0952C39.2862 48.1252 42.3466 46.8576 44.603 44.6013C46.8594 42.345 48.127 39.2848 48.127 36.0939V27.5002C48.127 27.0443 48.3081 26.6071 48.6304 26.2848C48.9528 25.9625 49.3899 25.7814 49.8458 25.7814C50.3017 25.7814 50.7388 25.9625 51.0612 26.2848C51.3835 26.6071 51.5646 27.0443 51.5646 27.5002V36.0939C51.5646 40.1965 49.9348 44.131 47.0337 47.032C44.1327 49.9329 40.198 51.5627 36.0952 51.5627H18.907C14.8043 51.5627 10.8696 49.9329 7.9685 47.032C5.06743 44.131 3.43762 40.1965 3.43762 36.0939V18.9064C3.43762 14.8038 5.06743 10.8693 7.9685 7.96834C10.8696 5.06739 14.8043 3.43765 18.907 3.43765H27.5011C27.957 3.43765 28.3942 3.61873 28.7165 3.94106C29.0389 4.26339 29.2199 4.70056 29.2199 5.1564C29.2199 5.61224 29.0389 6.04941 28.7165 6.37174C28.3942 6.69407 27.957 6.87515 27.5011 6.87515H18.907Z" fill="#59C98D"/>
<path d="M55.0015 10.3125C55.0015 13.0475 53.915 15.6706 51.981 17.6045C50.047 19.5385 47.424 20.625 44.689 20.625C41.9539 20.625 39.3309 19.5385 37.3969 17.6045C35.463 15.6706 34.3765 13.0475 34.3765 10.3125C34.3765 7.57746 35.463 4.95443 37.3969 3.02046C39.3309 1.08649 41.9539 0 44.689 0C47.424 0 50.047 1.08649 51.981 3.02046C53.915 4.95443 55.0015 7.57746 55.0015 10.3125Z" fill="#59C98D"/>
</g>
<defs>
<clipPath id="clip0_102_85581">
<rect width="55.0023" height="55" fill="white"/>
</clipPath>
</defs>
</svg>
