<svg width="55" height="55" viewBox="0 0 55 55" fill="none" xmlns="http://www.w3.org/2000/svg">
<path fill-rule="evenodd" clip-rule="evenodd" d="M27.5 10.3125C23.7853 10.3139 20.171 11.5188 17.1986 13.7467C14.2261 15.9746 12.0554 19.1055 11.0116 22.6706C9.96783 26.2356 10.1072 30.0429 11.4087 33.5221C12.7103 37.0014 15.104 39.9653 18.2314 41.9699C21.3588 43.9746 25.0514 44.9121 28.7563 44.642C32.4612 44.3719 35.9789 42.9088 38.7824 40.4718C41.586 38.0347 43.5246 34.755 44.3078 31.1238C45.091 27.4926 44.6767 23.7054 43.1269 20.3294C42.9582 19.9189 42.9548 19.4591 43.1175 19.0462C43.2801 18.6333 43.5961 18.2993 43.9993 18.1141C44.4026 17.9289 44.8619 17.9069 45.281 18.0526C45.7002 18.1983 46.0467 18.5005 46.2482 18.8959C48.1078 22.9473 48.6048 27.4922 47.6647 31.8498C46.7245 36.2073 44.3979 40.143 41.0332 43.0672C37.6686 45.9915 33.4471 47.7469 29.001 48.0706C24.5549 48.3942 20.1237 47.2687 16.371 44.8625C12.6183 42.4564 9.74624 38.8992 8.18493 34.7237C6.62363 30.5483 6.45716 25.9793 7.71046 21.7013C8.96377 17.4233 11.5694 13.6665 15.137 10.9937C18.7046 8.32079 23.0422 6.87576 27.5 6.875V10.3125Z" fill="#7C73FB"/>
<path d="M27.5 15.3519V1.83563C27.5001 1.67234 27.5466 1.51244 27.6343 1.37467C27.7219 1.23689 27.847 1.12694 27.9949 1.05769C28.1428 0.988436 28.3074 0.96275 28.4693 0.983638C28.6313 1.00453 28.7839 1.07112 28.9094 1.17563L37.0219 7.93376C37.4344 8.27751 37.4344 8.91001 37.0219 9.25376L28.9094 16.0119C28.7839 16.1164 28.6313 16.183 28.4693 16.2039C28.3074 16.2248 28.1428 16.1991 27.9949 16.1298C27.847 16.0606 27.7219 15.9506 27.6343 15.8128C27.5466 15.6751 27.5001 15.5152 27.5 15.3519Z" fill="#7C73FB"/>
</svg>
