<svg width="55" height="55" viewBox="0 0 55 55" fill="none" xmlns="http://www.w3.org/2000/svg">
<g clip-path="url(#clip0_102_85608)">
<path d="M6.875 3.43751C5.96332 3.43751 5.08898 3.79967 4.44432 4.44433C3.79967 5.08898 3.4375 5.96332 3.4375 6.87501C3.4375 7.78669 3.79967 8.66103 4.44432 9.30569C5.08898 9.95034 5.96332 10.3125 6.875 10.3125C7.78668 10.3125 8.66103 9.95034 9.30568 9.30569C9.95034 8.66103 10.3125 7.78669 10.3125 6.87501C10.3125 5.96332 9.95034 5.08898 9.30568 4.44433C8.66103 3.79967 7.78668 3.43751 6.875 3.43751ZM3.36132e-06 6.87501C-0.00165164 5.20049 0.607897 3.58293 1.71424 2.32594C2.82058 1.06896 4.34765 0.258963 6.00883 0.0479932C7.67001 -0.162977 9.35107 0.239584 10.7365 1.18012C12.1219 2.12065 13.1165 3.53448 13.5334 5.15626H41.4666C41.77 3.98292 42.3781 2.91064 43.2294 2.04807C44.0807 1.18549 45.1449 0.563281 46.3142 0.244484C47.4834 -0.0743119 48.7162 -0.0783638 49.8875 0.232739C51.0588 0.543842 52.127 1.15904 52.984 2.016C53.841 2.87296 54.4562 3.94122 54.7673 5.11254C55.0784 6.28385 55.0743 7.51659 54.7555 8.68583C54.4367 9.85507 53.8145 10.9193 52.9519 11.7706C52.0894 12.6219 51.0171 13.23 49.8438 13.5334V41.4666C51.0171 41.77 52.0894 42.3781 52.9519 43.2294C53.8145 44.0807 54.4367 45.1449 54.7555 46.3142C55.0743 47.4834 55.0784 48.7162 54.7673 49.8875C54.4562 51.0588 53.841 52.1271 52.984 52.984C52.127 53.841 51.0588 54.4562 49.8875 54.7673C48.7162 55.0784 47.4834 55.0743 46.3142 54.7555C45.1449 54.4367 44.0807 53.8145 43.2294 52.9519C42.3781 52.0894 41.77 51.0171 41.4666 49.8438H13.5334C13.23 51.0171 12.6219 52.0894 11.7706 52.9519C10.9193 53.8145 9.85507 54.4367 8.68583 54.7555C7.51658 55.0743 6.28385 55.0784 5.11253 54.7673C3.94122 54.4562 2.87296 53.841 2.016 52.984C1.15904 52.1271 0.543839 51.0588 0.232736 49.8875C-0.0783667 48.7162 -0.0743148 47.4834 0.244482 46.3142C0.563278 45.1449 1.18549 44.0807 2.04806 43.2294C2.91064 42.3781 3.98292 41.77 5.15625 41.4666V13.5334C3.6802 13.1523 2.37269 12.2914 1.4393 11.0861C0.505921 9.88082 -0.000384087 8.39946 3.36132e-06 6.87501ZM8.59375 13.5334V41.4666C11.0103 42.0853 12.9113 43.9897 13.5334 46.4063H41.4666C41.7748 45.2173 42.3953 44.1323 43.2638 43.2638C44.1323 42.3953 45.2173 41.7748 46.4063 41.4666V13.5334C45.2173 13.2252 44.1323 12.6047 43.2638 11.7362C42.3953 10.8677 41.7748 9.78273 41.4666 8.59376H13.5334C13.2252 9.78273 12.6047 10.8677 11.7362 11.7362C10.8677 12.6047 9.78273 13.2252 8.59375 13.5334ZM48.125 3.43751C47.2133 3.43751 46.339 3.79967 45.6943 4.44433C45.0497 5.08898 44.6875 5.96332 44.6875 6.87501C44.6875 7.78669 45.0497 8.66103 45.6943 9.30569C46.339 9.95034 47.2133 10.3125 48.125 10.3125C49.0367 10.3125 49.911 9.95034 50.5557 9.30569C51.2003 8.66103 51.5625 7.78669 51.5625 6.87501C51.5625 5.96332 51.2003 5.08898 50.5557 4.44433C49.911 3.79967 49.0367 3.43751 48.125 3.43751ZM6.875 44.6875C5.96332 44.6875 5.08898 45.0497 4.44432 45.6943C3.79967 46.339 3.4375 47.2133 3.4375 48.125C3.4375 49.0367 3.79967 49.911 4.44432 50.5557C5.08898 51.2003 5.96332 51.5625 6.875 51.5625C7.78668 51.5625 8.66103 51.2003 9.30568 50.5557C9.95034 49.911 10.3125 49.0367 10.3125 48.125C10.3125 47.2133 9.95034 46.339 9.30568 45.6943C8.66103 45.0497 7.78668 44.6875 6.875 44.6875ZM48.125 44.6875C47.2133 44.6875 46.339 45.0497 45.6943 45.6943C45.0497 46.339 44.6875 47.2133 44.6875 48.125C44.6875 49.0367 45.0497 49.911 45.6943 50.5557C46.339 51.2003 47.2133 51.5625 48.125 51.5625C49.0367 51.5625 49.911 51.2003 50.5557 50.5557C51.2003 49.911 51.5625 49.0367 51.5625 48.125C51.5625 47.2133 51.2003 46.339 50.5557 45.6943C49.911 45.0497 49.0367 44.6875 48.125 44.6875Z" fill="#CC00FF"/>
</g>
<defs>
<clipPath id="clip0_102_85608">
<rect width="55" height="55" fill="white"/>
</clipPath>
</defs>
</svg>
