<svg width="56" height="56" viewBox="0 0 56 56" fill="none" xmlns="http://www.w3.org/2000/svg">
<g clip-path="url(#clip0_102_85568)">
<path d="M0 12.6147C0 12.6147 0 5.39871 6.87529 5.39871H48.127C48.127 5.39871 55.0023 5.39871 55.0023 12.6147V34.2627C55.0023 34.2627 55.0023 41.4787 48.127 41.4787H34.3764C34.3764 43.8853 34.6618 45.6893 35.2358 46.8907H37.8141C38.2699 46.8907 38.7071 47.0808 39.0295 47.4191C39.3518 47.7574 39.5329 48.2163 39.5329 48.6947C39.5329 49.1732 39.3518 49.632 39.0295 49.9703C38.7071 50.3087 38.2699 50.4987 37.8141 50.4987H17.1882C16.7324 50.4987 16.2952 50.3087 15.9728 49.9703C15.6505 49.632 15.4694 49.1732 15.4694 48.6947C15.4694 48.2163 15.6505 47.7574 15.9728 47.4191C16.2952 47.0808 16.7324 46.8907 17.1882 46.8907H19.7664C20.3405 45.6893 20.6259 43.8853 20.6259 41.4787H6.87529C6.87529 41.4787 0 41.4787 0 34.2627V12.6147ZM4.80582 9.52987C4.42822 9.8058 4.12696 10.1817 3.93266 10.6195C3.63964 11.2549 3.47129 11.9457 3.43764 12.6508V34.2627C3.43764 35.4353 3.70578 36.0739 3.9361 36.4347C4.17674 36.8136 4.5205 37.113 4.97427 37.3512C5.55364 37.6457 6.18147 37.8209 6.82372 37.8671L6.90966 37.8707H48.127C49.2442 37.8707 49.8527 37.5893 50.1965 37.3476C50.5741 37.0716 50.8753 36.6957 51.0696 36.2579C51.3503 35.6499 51.5171 34.9909 51.5612 34.3168L51.5646 34.2266V12.6147C51.5646 11.4421 51.2965 10.8035 51.0662 10.4427C50.8034 10.0463 50.4452 9.73004 50.028 9.52626C49.4226 9.21872 48.7644 9.04203 48.0926 9.00671H6.87529C5.75805 9.00671 5.14959 9.28814 4.80582 9.52987Z" fill="#337DFF"/>
</g>
<defs>
<clipPath id="clip0_102_85568">
<rect width="55.0023" height="55" fill="white" transform="translate(0 0.998535)"/>
</clipPath>
</defs>
</svg>
