<svg width="56" height="55" viewBox="0 0 56 55" fill="none" xmlns="http://www.w3.org/2000/svg">
<path d="M29.22 39.5321C29.22 39.988 29.0389 40.4252 28.7166 40.7475C28.3942 41.0699 27.957 41.251 27.5012 41.251C27.0453 41.251 26.6081 41.0699 26.2858 40.7475C25.9635 40.4252 25.7824 39.988 25.7824 39.5321V26.4932L21.8428 30.4361C21.5201 30.7589 21.0823 30.9402 20.6259 30.9402C20.1695 30.9402 19.7317 30.7589 19.409 30.4361C19.0862 30.1134 18.9049 29.6757 18.9049 29.2192C18.9049 28.7628 19.0862 28.325 19.409 28.0023L26.2843 21.127C26.4439 20.9669 26.6336 20.8399 26.8424 20.7533C27.0512 20.6666 27.2751 20.622 27.5012 20.622C27.7273 20.622 27.9511 20.6666 28.16 20.7533C28.3688 20.8399 28.5584 20.9669 28.7181 21.127L35.5934 28.0023C35.9161 28.325 36.0975 28.7628 36.0975 29.2192C36.0975 29.6757 35.9161 30.1134 35.5934 30.4361C35.2706 30.7589 34.8329 30.9402 34.3765 30.9402C33.92 30.9402 33.4823 30.7589 33.1595 30.4361L29.22 26.4932V39.5321Z" fill="#12D8DF"/>
<path d="M48.127 48.125V15.4688L32.6576 0H13.7505C11.9271 0 10.1783 0.724328 8.88897 2.01364C7.5996 3.30295 6.87524 5.05164 6.87524 6.875V48.125C6.87524 49.9484 7.5996 51.697 8.88897 52.9864C10.1783 54.2757 11.9271 55 13.7505 55H41.2517C43.0751 55 44.8239 54.2757 46.1132 52.9864C47.4026 51.697 48.127 49.9484 48.127 48.125ZM32.6576 10.3125C32.6576 11.68 33.2008 12.9915 34.1679 13.9585C35.1349 14.9255 36.4465 15.4688 37.814 15.4688H44.6893V48.125C44.6893 49.0367 44.3271 49.911 43.6825 50.5557C43.0378 51.2003 42.1634 51.5625 41.2517 51.5625H13.7505C12.8388 51.5625 11.9644 51.2003 11.3197 50.5557C10.6751 49.911 10.3129 49.0367 10.3129 48.125V6.875C10.3129 5.96332 10.6751 5.08898 11.3197 4.44432C11.9644 3.79966 12.8388 3.4375 13.7505 3.4375H32.6576V10.3125Z" fill="#12D8DF"/>
</svg>
