<svg width="55" height="55" viewBox="0 0 55 55" fill="none" xmlns="http://www.w3.org/2000/svg">
<path d="M27.5 16.3419C26.0347 16.3419 24.5838 16.6305 23.23 17.1912C21.8762 17.752 20.6462 18.5739 19.6101 19.61C18.5739 20.6461 17.752 21.8762 17.1913 23.23C16.6305 24.5837 16.3419 26.0347 16.3419 27.5C16.3419 28.9653 16.6305 30.4163 17.1913 31.77C17.752 33.1238 18.5739 34.3539 19.6101 35.39C20.6462 36.4261 21.8762 37.248 23.23 37.8088C24.5838 38.3695 26.0347 38.6581 27.5 38.6581C30.4594 38.6581 33.2975 37.4825 35.39 35.39C37.4826 33.2974 38.6582 30.4593 38.6582 27.5C38.6582 24.5407 37.4826 21.7026 35.39 19.61C33.2975 17.5175 30.4594 16.3419 27.5 16.3419ZM19.7794 27.5C19.7794 25.4524 20.5928 23.4886 22.0407 22.0407C23.4886 20.5928 25.4524 19.7794 27.5 19.7794C29.5477 19.7794 31.5115 20.5928 32.9594 22.0407C34.4072 23.4886 35.2207 25.4524 35.2207 27.5C35.2207 29.5476 34.4072 31.5114 32.9594 32.9593C31.5115 34.4072 29.5477 35.2206 27.5 35.2206C25.4524 35.2206 23.4886 34.4072 22.0407 32.9593C20.5928 31.5114 19.7794 29.5476 19.7794 27.5Z" fill="#357FF6"/>
<path d="M33.6737 4.61656C31.8622 -1.53656 23.1378 -1.53656 21.3262 4.61656L21.0031 5.71312C20.8766 6.14265 20.6556 6.53841 20.3562 6.87142C20.0569 7.20442 19.6868 7.46622 19.2732 7.63761C18.8595 7.80901 18.4127 7.88567 17.9656 7.86196C17.5184 7.83826 17.0823 7.7148 16.6891 7.50062L15.6853 6.95062C10.0478 3.88437 3.88437 10.0512 6.95405 15.6853L7.50061 16.6891C7.71479 17.0823 7.83825 17.5184 7.86196 17.9656C7.88566 18.4127 7.809 18.8595 7.63761 19.2732C7.46621 19.6868 7.20441 20.0569 6.87141 20.3562C6.53841 20.6556 6.14264 20.8766 5.71311 21.0031L4.61655 21.3262C-1.53657 23.1378 -1.53657 31.8622 4.61655 33.6737L5.71311 33.9969C6.14264 34.1234 6.53841 34.3444 6.87141 34.6437C7.20441 34.9431 7.46621 35.3132 7.63761 35.7268C7.809 36.1405 7.88566 36.5873 7.86196 37.0344C7.83825 37.4815 7.71479 37.9177 7.50061 38.3109L6.95061 39.3147C3.88437 44.9522 10.0478 51.1191 15.6853 48.0459L16.6891 47.4994C17.0823 47.2852 17.5184 47.1617 17.9656 47.138C18.4127 47.1143 18.8595 47.191 19.2732 47.3624C19.6868 47.5338 20.0569 47.7956 20.3562 48.1286C20.6556 48.4616 20.8766 48.8573 21.0031 49.2869L21.3262 50.3834C23.1378 56.5366 31.8622 56.5366 33.6737 50.3834L33.9969 49.2869C34.1234 48.8573 34.3444 48.4616 34.6437 48.1286C34.9431 47.7956 35.3131 47.5338 35.7268 47.3624C36.1405 47.191 36.5873 47.1143 37.0344 47.138C37.4815 47.1617 37.9177 47.2852 38.3109 47.4994L39.3147 48.0494C44.9522 51.1191 51.119 44.9487 48.0459 39.3147L47.4994 38.3109C47.2852 37.9177 47.1617 37.4815 47.138 37.0344C47.1143 36.5873 47.191 36.1405 47.3624 35.7268C47.5338 35.3132 47.7956 34.9431 48.1286 34.6437C48.4616 34.3444 48.8573 34.1234 49.2869 33.9969L50.3834 33.6737C56.5365 31.8622 56.5365 23.1378 50.3834 21.3262L49.2869 21.0031C48.8573 20.8766 48.4616 20.6556 48.1286 20.3562C47.7956 20.0569 47.5338 19.6868 47.3624 19.2732C47.191 18.8595 47.1143 18.4127 47.138 17.9656C47.1617 17.5184 47.2852 17.0823 47.4994 16.6891L48.0494 15.6853C51.119 10.0478 44.9487 3.88437 39.3147 6.95406L38.3109 7.50062C37.9177 7.7148 37.4815 7.83826 37.0344 7.86196C36.5873 7.88567 36.1405 7.80901 35.7268 7.63761C35.3131 7.46622 34.9431 7.20442 34.6437 6.87142C34.3444 6.53841 34.1234 6.14265 33.9969 5.71312L33.6737 4.61656ZM24.6228 5.58937C25.4684 2.71906 29.5316 2.71906 30.3772 5.58937L30.7003 6.68594C30.9719 7.60748 31.4464 8.45655 32.0888 9.1709C32.7312 9.88525 33.5254 10.4468 34.4131 10.8143C35.3007 11.1818 36.2594 11.346 37.2188 11.2949C38.1782 11.2438 39.1139 10.9786 39.9575 10.5187L40.9578 9.96875C43.584 8.54218 46.4578 11.4125 45.0278 14.0422L44.4812 15.0459C44.0221 15.8896 43.7576 16.8253 43.707 17.7844C43.6564 18.7436 43.821 19.7019 44.1889 20.5892C44.5567 21.4765 45.1184 22.2702 45.8328 22.9122C46.5471 23.5543 47.3961 24.0283 48.3175 24.2997L49.4106 24.6228C52.2809 25.4684 52.2809 29.5316 49.4106 30.3772L48.3141 30.7003C47.3925 30.9719 46.5434 31.4464 45.8291 32.0888C45.1147 32.7312 44.5532 33.5254 44.1857 34.4131C43.8182 35.3007 43.6539 36.2594 43.7051 37.2188C43.7562 38.1782 44.0214 39.1139 44.4812 39.9575L45.0312 40.9578C46.4578 43.5841 43.5875 46.4578 40.9578 45.0278L39.9575 44.4812C39.1137 44.0215 38.1777 43.7564 37.2181 43.7055C36.2586 43.6546 35.2998 43.8191 34.412 44.1869C33.5243 44.5548 32.7302 45.1167 32.088 45.8315C31.4457 46.5462 30.9715 47.3957 30.7003 48.3175L30.3772 49.4106C29.5316 52.2809 25.4684 52.2809 24.6228 49.4106L24.2997 48.3141C24.0279 47.393 23.5536 46.5444 22.9114 45.8304C22.2692 45.1164 21.4754 44.5551 20.5882 44.1876C19.7009 43.8201 18.7428 43.6558 17.7838 43.7066C16.8248 43.7574 15.8894 44.0221 15.0459 44.4812L14.0422 45.0312C11.4159 46.4578 8.54218 43.5875 9.97218 40.9578L10.5187 39.9575C10.9792 39.1138 11.2449 38.1777 11.2964 37.2179C11.3479 36.2581 11.1838 35.299 10.8162 34.4109C10.4487 33.5228 9.88691 32.7282 9.1722 32.0856C8.45749 31.4429 7.60795 30.9684 6.68593 30.6969L5.58936 30.3737C2.71905 29.5281 2.71905 25.465 5.58936 24.6194L6.68593 24.2962C7.60651 24.0244 8.45466 23.5501 9.16829 22.9081C9.88193 22.2662 10.443 21.4728 10.8104 20.586C11.1779 19.6992 11.3424 18.7415 11.2919 17.7829C11.2414 16.8244 10.9773 15.8892 10.5187 15.0459L9.96874 14.0422C8.54218 11.4159 11.4125 8.54218 14.0422 9.97218L15.0459 10.5187C15.8894 10.9779 16.8248 11.2426 17.7838 11.2934C18.7428 11.3442 19.7009 11.1798 20.5882 10.8124C21.4754 10.4449 22.2692 9.88359 22.9114 9.1696C23.5536 8.45561 24.0279 7.607 24.2997 6.68594L24.6228 5.58937Z" fill="#357FF6"/>
</svg>
