<svg width="55" height="55" viewBox="0 0 55 55" fill="none" xmlns="http://www.w3.org/2000/svg">
<path d="M27.5 10.3125C22.9416 10.3125 18.5699 12.1233 15.3466 15.3466C12.1233 18.5699 10.3125 22.9416 10.3125 27.5V30.9375H13.75C14.6617 30.9375 15.536 31.2997 16.1807 31.9443C16.8253 32.589 17.1875 33.4633 17.1875 34.375V44.6875C17.1875 45.5992 16.8253 46.4735 16.1807 47.1182C15.536 47.7628 14.6617 48.125 13.75 48.125H10.3125C9.40082 48.125 8.52648 47.7628 7.88182 47.1182C7.23716 46.4735 6.875 45.5992 6.875 44.6875V27.5C6.875 24.7915 7.40848 22.1095 8.44498 19.6072C9.48149 17.1048 11.0007 14.8311 12.9159 12.9159C14.8311 11.0007 17.1048 9.48149 19.6072 8.44498C22.1095 7.40848 24.7915 6.875 27.5 6.875C30.2085 6.875 32.8905 7.40848 35.3928 8.44498C37.8952 9.48149 40.1689 11.0007 42.0841 12.9159C43.9993 14.8311 45.5185 17.1048 46.555 19.6072C47.5915 22.1095 48.125 24.7915 48.125 27.5V44.6875C48.125 45.5992 47.7628 46.4735 47.1182 47.1182C46.4735 47.7628 45.5992 48.125 44.6875 48.125H41.25C40.3383 48.125 39.464 47.7628 38.8193 47.1182C38.1747 46.4735 37.8125 45.5992 37.8125 44.6875V34.375C37.8125 33.4633 38.1747 32.589 38.8193 31.9443C39.464 31.2997 40.3383 30.9375 41.25 30.9375H44.6875V27.5C44.6875 22.9416 42.8767 18.5699 39.6534 15.3466C36.4301 12.1233 32.0584 10.3125 27.5 10.3125Z" fill="#5644A9"/>
</svg>
