<svg width="56" height="55" viewBox="0 0 56 55" fill="none" xmlns="http://www.w3.org/2000/svg">
<g clip-path="url(#clip0_102_85795)">
<path d="M37.8141 3.4375C38.7259 3.4375 39.6002 3.79966 40.2449 4.44432C40.8896 5.08898 41.2518 5.96332 41.2518 6.875V48.125C41.2518 49.0367 40.8896 49.911 40.2449 50.5557C39.6002 51.2003 38.7259 51.5625 37.8141 51.5625H17.1883C16.2766 51.5625 15.4022 51.2003 14.7575 50.5557C14.1128 49.911 13.7506 49.0367 13.7506 48.125V6.875C13.7506 5.96332 14.1128 5.08898 14.7575 4.44432C15.4022 3.79966 16.2766 3.4375 17.1883 3.4375H37.8141ZM17.1883 0C15.3648 0 13.6161 0.724328 12.3267 2.01364C11.0373 3.30295 10.313 5.05164 10.313 6.875V48.125C10.313 49.9484 11.0373 51.697 12.3267 52.9864C13.6161 54.2757 15.3648 55 17.1883 55H37.8141C39.6376 55 41.3863 54.2757 42.6757 52.9864C43.9651 51.697 44.6894 49.9484 44.6894 48.125V6.875C44.6894 5.05164 43.9651 3.30295 42.6757 2.01364C41.3863 0.724328 39.6376 0 37.8141 0L17.1883 0Z" fill="#FF9900"/>
<path d="M27.5011 48.1253C28.4128 48.1253 29.2872 47.7631 29.9319 47.1184C30.5766 46.4737 30.9388 45.5994 30.9388 44.6876C30.9388 43.7759 30.5766 42.9015 29.9319 42.2569C29.2872 41.6122 28.4128 41.25 27.5011 41.25C26.5894 41.25 25.715 41.6122 25.0703 42.2569C24.4257 42.9015 24.0635 43.7759 24.0635 44.6876C24.0635 45.5994 24.4257 46.4737 25.0703 47.1184C25.715 47.7631 26.5894 48.1253 27.5011 48.1253Z" fill="#FF9900"/>
</g>
<defs>
<clipPath id="clip0_102_85795">
<rect width="55.0023" height="55" fill="white"/>
</clipPath>
</defs>
</svg>
