<svg width="55" height="55" viewBox="0 0 55 55" fill="none" xmlns="http://www.w3.org/2000/svg">
<g clip-path="url(#clip0_102_85801)">
<path d="M41.25 3.4375C42.1617 3.4375 43.036 3.79966 43.6807 4.44432C44.3253 5.08898 44.6875 5.96332 44.6875 6.875V48.125C44.6875 49.0367 44.3253 49.911 43.6807 50.5557C43.036 51.2003 42.1617 51.5625 41.25 51.5625H13.75C12.8383 51.5625 11.964 51.2003 11.3193 50.5557C10.6747 49.911 10.3125 49.0367 10.3125 48.125V6.875C10.3125 5.96332 10.6747 5.08898 11.3193 4.44432C11.964 3.79966 12.8383 3.4375 13.75 3.4375H41.25ZM13.75 0C11.9266 0 10.178 0.724328 8.88864 2.01364C7.59933 3.30295 6.875 5.05164 6.875 6.875V48.125C6.875 49.9484 7.59933 51.697 8.88864 52.9864C10.178 54.2757 11.9266 55 13.75 55H41.25C43.0734 55 44.822 54.2757 46.1114 52.9864C47.4007 51.697 48.125 49.9484 48.125 48.125V6.875C48.125 5.05164 47.4007 3.30295 46.1114 2.01364C44.822 0.724328 43.0734 0 41.25 0L13.75 0Z" fill="#30B06B"/>
<path d="M27.5 48.125C28.4117 48.125 29.286 47.7628 29.9307 47.1182C30.5753 46.4735 30.9375 45.5992 30.9375 44.6875C30.9375 43.7758 30.5753 42.9015 29.9307 42.2568C29.286 41.6122 28.4117 41.25 27.5 41.25C26.5883 41.25 25.714 41.6122 25.0693 42.2568C24.4247 42.9015 24.0625 43.7758 24.0625 44.6875C24.0625 45.5992 24.4247 46.4735 25.0693 47.1182C25.714 47.7628 26.5883 48.125 27.5 48.125Z" fill="#30B06B"/>
</g>
<defs>
<clipPath id="clip0_102_85801">
<rect width="55" height="55" fill="white"/>
</clipPath>
</defs>
</svg>
