<svg width="56" height="55" viewBox="0 0 56 55" fill="none" xmlns="http://www.w3.org/2000/svg">
<path d="M0 11.84C0 11.84 0 4 6.875 4H48.125C48.125 4 55 4 55 11.84V35.36C55 35.36 55 43.2 48.125 43.2H34.375C34.375 45.8146 34.6603 47.7746 35.2344 49.08H37.8125C38.2683 49.08 38.7055 49.2865 39.0278 49.6541C39.3502 50.0216 39.5312 50.5202 39.5312 51.04C39.5312 51.5598 39.3502 52.0584 39.0278 52.4259C38.7055 52.7935 38.2683 53 37.8125 53H17.1875C16.7317 53 16.2945 52.7935 15.9722 52.4259C15.6498 52.0584 15.4688 51.5598 15.4688 51.04C15.4688 50.5202 15.6498 50.0216 15.9722 49.6541C16.2945 49.2865 16.7317 49.08 17.1875 49.08H19.7656C20.3397 47.7746 20.625 45.8146 20.625 43.2H6.875C6.875 43.2 0 43.2 0 35.36V11.84ZM4.80562 8.4884C4.42803 8.78819 4.12678 9.19664 3.9325 9.67224C3.63948 10.3626 3.47115 11.1132 3.4375 11.8792V35.36C3.4375 36.634 3.70562 37.3278 3.93594 37.7198C4.17656 38.1314 4.52031 38.4568 4.97406 38.7155C5.55341 39.0355 6.18121 39.2258 6.82344 39.2761L6.90938 39.28H48.125C49.2422 39.28 49.8506 38.9742 50.1944 38.7116C50.572 38.4118 50.8732 38.0034 51.0675 37.5278C51.3481 36.8671 51.515 36.1512 51.5591 35.4188L51.5625 35.3208V11.84C51.5625 10.566 51.2944 9.87216 51.0641 9.48016C50.8013 9.04944 50.4431 8.70587 50.0259 8.48448C49.4205 8.15034 48.7624 7.95837 48.0906 7.92H6.875C5.75781 7.92 5.14937 8.22576 4.80562 8.4884Z" fill="#0CAEB4"/>
</svg>
